<?xml version="1.0" encoding="utf-8"?>
<!-- Generator: Adobe Illustrator 26.3.1, SVG Export Plug-In . SVG Version: 6.00 Build 0)  -->
<svg version="1.1" id="Layer_1" xmlns="http://www.w3.org/2000/svg" xmlns:xlink="http://www.w3.org/1999/xlink" x="0px" y="0px"
	 viewBox="0 0 512 512" style="enable-background:new 0 0 512 512;" xml:space="preserve">
<style type="text/css">
	.st0{fill:#FFFFFF;}
</style>
<path class="st0" d="M481.2,19.7C461.7,3.4,435.9-3.3,410.9,1.5L215,38.2c-50.5,9.5-87,53.5-87,104.8v210.1
	c-12.9-7.7-27.6-11.8-42.7-11.9C38.2,341.3,0,379.5,0,426.7S38.2,512,85.3,512s85.3-38.2,85.3-85.3V232c0-20.5,14.6-38.2,34.8-41.9
	l238.6-44.8c11.6-2.2,22.7,5.4,24.9,17c0.3,1.4,0.4,2.7,0.4,4.1v122.9c-12.9-7.7-27.6-11.8-42.7-11.9c-47.1,0-85.3,38.2-85.3,85.3
	s38.2,85.3,85.3,85.3s85.3-38.2,85.3-85.3V85.3C512,59.9,500.7,35.9,481.2,19.7z M85.3,469.3c-23.6,0-42.7-19.1-42.7-42.7
	c0-23.6,19.1-42.7,42.7-42.7s42.7,19.1,42.7,42.7C128,450.2,108.9,469.3,85.3,469.3z M436.2,103.4l-238.6,44.7
	c-9.5,1.8-18.6,5.2-26.9,10.1v-15.1c0-30.8,21.9-57.2,52.2-62.9l195.9-36.7c23.2-4.3,45.5,10.9,49.8,34.1c0.5,2.6,0.7,5.2,0.7,7.8
	v21C458.7,102.4,447.3,101.4,436.2,103.4z M426.7,405.3c-23.6,0-42.7-19.1-42.7-42.7s19.1-42.7,42.7-42.7
	c23.6,0,42.7,19.1,42.7,42.7S450.2,405.3,426.7,405.3z"/>
</svg>
