<?xml version="1.0" encoding="utf-8"?>
<!-- Generator: Adobe Illustrator 26.3.1, SVG Export Plug-In . SVG Version: 6.00 Build 0)  -->
<svg version="1.1" id="Layer_1" xmlns="http://www.w3.org/2000/svg" xmlns:xlink="http://www.w3.org/1999/xlink" x="0px" y="0px"
	 viewBox="0 0 52.9 46.7" style="enable-background:new 0 0 52.9 46.7;" xml:space="preserve">
<style type="text/css">
	.st0{fill:#2A2727;}
</style>
<g>
	<g>
		<path class="st0" d="M8.3,45.5L5,38.1c-0.3-0.7-1.3-0.7-1.6,0l-3.3,7.4c-0.3,0.6,0.2,1.2,0.8,1.2h6.6C8.2,46.7,8.6,46.1,8.3,45.5z
			"/>
		<g>
			<path class="st0" d="M33.8,1.4l13.9,30.7c0.3,0.7,1.3,0.7,1.6,0l3.5-7.8c0.3-0.6,0.3-1.4,0-2L42.9,0.8C42.7,0.3,42.2,0,41.7,0h-7
				C34,0,33.5,0.8,33.8,1.4z"/>
			<path class="st0" d="M8.3,29l7.7,17c0.2,0.5,0.7,0.8,1.2,0.8h6.3c0.7,0,1.2-0.8,0.9-1.4l-7-15.5c-0.2-0.6-0.3-1.2,0-1.7l1.6-3.7
				c0.3-0.6,0.3-1.4,0-2L9.3,0.8C9,0.3,8.6,0,8.1,0H1C0.3,0-0.2,0.8,0.1,1.4l9.5,21.1c0.2,0.6,0.3,1.2,0,1.7l-1.3,3
				C8,27.8,8,28.4,8.3,29z"/>
			<path class="st0" d="M43.2,46l1.4-3.2c0.2-0.3,0.2-0.7,0-1.1l-18.5-41C25.9,0.3,25.4,0,24.9,0h-7.1c-0.7,0-1.2,0.8-0.9,1.4
				L37,45.9c0.2,0.5,0.7,0.8,1.2,0.8h3.8C42.5,46.7,43,46.4,43.2,46z"/>
		</g>
	</g>
</g>
</svg>
